
<?xml version="1.0" ?><svg id="Mental_health" viewBox="0 0 512 512" xmlns="http://www.w3.org/2000/svg"><title/><path d="M406.6085,366.5419c-7.2207-26.9492-3.82-55.8691,10.44-79.8476a165.2673,165.2673,0,0,0,23.0791-91.4512C436.6592,108.3154,365.3155,38.1513,278.3448,36.05A166.022,166.022,0,0,0,108.22,201.456h-.0156v.5742L73.1358,282.5361A16.781,16.781,0,0,0,80.61,304.038l27.5938,14.7442v68.1855A35.5254,35.5254,0,0,0,143.73,422.4931h65.0137l10.39,38.7754a19.8668,19.8668,0,0,0,24.334,14.0488l160.2158-42.93a19.8671,19.8671,0,0,0,14.0488-24.3339Zm-50.1768-148.74-6.1582,6.1582-.1035.1016-76.5391,76.541L196.9883,223.96l-6.2617-6.2617a54.1945,54.1945,0,0,1,76.6426-76.6426l6.2617,6.2617,6.1582-6.1582a54.1945,54.1945,0,1,1,76.6426,76.6426Z"/></svg>